<svg width="20" height="20" viewBox="0 0 20 20" fill="none" xmlns="http://www.w3.org/2000/svg">
<mask id="mask0_1_304" style="mask-type:alpha" maskUnits="userSpaceOnUse" x="0" y="0" width="20" height="20">
<rect width="20" height="20" fill="#D9D9D9"/>
</mask>
<g mask="url(#mask0_1_304)">
<path d="M9.99996 18.3334C8.84718 18.3334 7.76385 18.1147 6.74996 17.6772C5.73607 17.2397 4.85413 16.6459 4.10413 15.8959C3.35413 15.1459 2.76038 14.264 2.32288 13.2501C1.88538 12.2362 1.66663 11.1529 1.66663 10.0001C1.66663 8.8473 1.88538 7.76397 2.32288 6.75008C2.76038 5.73619 3.35413 4.85425 4.10413 4.10425C4.85413 3.35425 5.73607 2.7605 6.74996 2.323C7.76385 1.8855 8.84718 1.66675 9.99996 1.66675C11.1527 1.66675 12.2361 1.8855 13.25 2.323C14.2638 2.7605 15.1458 3.35425 15.8958 4.10425C16.6458 4.85425 17.2395 5.73619 17.677 6.75008C18.1145 7.76397 18.3333 8.8473 18.3333 10.0001V11.2084C18.3333 12.0279 18.052 12.7258 17.4895 13.3022C16.927 13.8786 16.2361 14.1667 15.4166 14.1667C14.9305 14.1667 14.4722 14.0626 14.0416 13.8542C13.6111 13.6459 13.25 13.3473 12.9583 12.9584C12.5555 13.3612 12.1007 13.6633 11.5937 13.8647C11.0868 14.0661 10.5555 14.1667 9.99996 14.1667C8.84718 14.1667 7.86454 13.7605 7.05204 12.948C6.23954 12.1355 5.83329 11.1529 5.83329 10.0001C5.83329 8.8473 6.23954 7.86466 7.05204 7.05216C7.86454 6.23966 8.84718 5.83341 9.99996 5.83341C11.1527 5.83341 12.1354 6.23966 12.9479 7.05216C13.7604 7.86466 14.1666 8.8473 14.1666 10.0001V11.2084C14.1666 11.5695 14.2847 11.8751 14.5208 12.1251C14.7569 12.3751 15.0555 12.5001 15.4166 12.5001C15.7777 12.5001 16.0763 12.3751 16.3125 12.1251C16.5486 11.8751 16.6666 11.5695 16.6666 11.2084V10.0001C16.6666 8.13897 16.0208 6.56258 14.7291 5.27091C13.4375 3.97925 11.8611 3.33341 9.99996 3.33341C8.13885 3.33341 6.56246 3.97925 5.27079 5.27091C3.97913 6.56258 3.33329 8.13897 3.33329 10.0001C3.33329 11.8612 3.97913 13.4376 5.27079 14.7292C6.56246 16.0209 8.13885 16.6667 9.99996 16.6667H13.3333C13.5694 16.6667 13.7673 16.7466 13.927 16.9063C14.0868 17.0661 14.1666 17.264 14.1666 17.5001C14.1666 17.7362 14.0868 17.9341 13.927 18.0938C13.7673 18.2536 13.5694 18.3334 13.3333 18.3334H9.99996ZM9.99996 12.5001C10.6944 12.5001 11.2847 12.257 11.7708 11.7709C12.2569 11.2848 12.5 10.6945 12.5 10.0001C12.5 9.30564 12.2569 8.71536 11.7708 8.22925C11.2847 7.74314 10.6944 7.50008 9.99996 7.50008C9.30551 7.50008 8.71524 7.74314 8.22913 8.22925C7.74301 8.71536 7.49996 9.30564 7.49996 10.0001C7.49996 10.6945 7.74301 11.2848 8.22913 11.7709C8.71524 12.257 9.30551 12.5001 9.99996 12.5001Z" fill="#10458B"/>
</g>
</svg>
