<svg width="21" height="20" viewBox="0 0 21 20" fill="none" xmlns="http://www.w3.org/2000/svg">
<mask id="mask0_276_105" style="mask-type:alpha" maskUnits="userSpaceOnUse" x="0" y="0" width="21" height="20">
<rect x="0.5" width="20" height="20" fill="#D9D9D9"/>
</mask>
<g mask="url(#mask0_276_105)">
<path d="M1.375 16.6667V15.1667C1.375 14.7083 1.49306 14.2778 1.72917 13.875C1.96528 13.4722 2.29167 13.1667 2.70833 12.9583C3.41667 12.5972 4.21528 12.2917 5.10417 12.0417C5.99306 11.7917 6.97222 11.6667 8.04167 11.6667C9.11111 11.6667 10.0903 11.7917 10.9792 12.0417C11.8681 12.2917 12.6667 12.5972 13.375 12.9583C13.7917 13.1667 14.1181 13.4722 14.3542 13.875C14.5903 14.2778 14.7083 14.7083 14.7083 15.1667V16.6667C14.7083 16.9028 14.6285 17.1007 14.4688 17.2604C14.309 17.4201 14.1111 17.5 13.875 17.5H2.20833C1.97222 17.5 1.77431 17.4201 1.61458 17.2604C1.45486 17.1007 1.375 16.9028 1.375 16.6667ZM8.04167 10.8333C7.125 10.8333 6.34028 10.5069 5.6875 9.85417C5.03472 9.20139 4.70833 8.41667 4.70833 7.5H4.5C4.375 7.5 4.27431 7.46181 4.19792 7.38542C4.12153 7.30903 4.08333 7.20833 4.08333 7.08333C4.08333 6.95833 4.12153 6.85764 4.19792 6.78125C4.27431 6.70486 4.375 6.66667 4.5 6.66667H4.70833C4.70833 6.04167 4.86111 5.47917 5.16667 4.97917C5.47222 4.47917 5.875 4.08333 6.375 3.79167V4.58333C6.375 4.70833 6.4132 4.80903 6.48958 4.88542C6.56597 4.96181 6.66667 5 6.79167 5C6.91667 5 7.01736 4.96181 7.09375 4.88542C7.17014 4.80903 7.20833 4.70833 7.20833 4.58333V3.45833C7.33333 3.41667 7.46528 3.38542 7.60417 3.36458C7.74306 3.34375 7.88889 3.33333 8.04167 3.33333C8.19444 3.33333 8.34028 3.34375 8.47917 3.36458C8.61806 3.38542 8.75 3.41667 8.875 3.45833V4.58333C8.875 4.70833 8.91319 4.80903 8.98958 4.88542C9.06597 4.96181 9.16667 5 9.29167 5C9.41667 5 9.51736 4.96181 9.59375 4.88542C9.67014 4.80903 9.70833 4.70833 9.70833 4.58333V3.79167C10.2083 4.08333 10.6111 4.47917 10.9167 4.97917C11.2222 5.47917 11.375 6.04167 11.375 6.66667H11.5833C11.7083 6.66667 11.809 6.70486 11.8854 6.78125C11.9618 6.85764 12 6.95833 12 7.08333C12 7.20833 11.9618 7.30903 11.8854 7.38542C11.809 7.46181 11.7083 7.5 11.5833 7.5H11.375C11.375 8.41667 11.0486 9.20139 10.3958 9.85417C9.74306 10.5069 8.95833 10.8333 8.04167 10.8333ZM8.04167 9.16667C8.5 9.16667 8.89236 9.00347 9.21875 8.67708C9.54514 8.35069 9.70833 7.95833 9.70833 7.5H6.375C6.375 7.95833 6.53819 8.35069 6.86458 8.67708C7.19097 9.00347 7.58333 9.16667 8.04167 9.16667ZM14.2292 12.1667L14.1667 11.875C14.0833 11.8472 14.0035 11.816 13.9271 11.7812C13.8507 11.7465 13.7778 11.6944 13.7083 11.625L13.4583 11.7083C13.3611 11.7361 13.2674 11.7361 13.1771 11.7083C13.0868 11.6806 13.0139 11.6181 12.9583 11.5208L12.875 11.375C12.8194 11.2917 12.8021 11.2014 12.8229 11.1042C12.8438 11.0069 12.8889 10.9236 12.9583 10.8542L13.1667 10.6667V10.1667L12.9583 9.97917C12.8889 9.90972 12.8438 9.82639 12.8229 9.72917C12.8021 9.63194 12.8194 9.54167 12.875 9.45833L12.9583 9.3125C13.0139 9.21528 13.0868 9.15278 13.1771 9.125C13.2674 9.09722 13.3611 9.09722 13.4583 9.125L13.7083 9.20833C13.7639 9.15278 13.8333 9.10417 13.9167 9.0625C14 9.02083 14.0833 8.98611 14.1667 8.95833L14.2292 8.66667C14.2569 8.56944 14.3056 8.48958 14.375 8.42708C14.4444 8.36458 14.5278 8.33333 14.625 8.33333H14.7917C14.8889 8.33333 14.9722 8.36458 15.0417 8.42708C15.1111 8.48958 15.1597 8.56944 15.1875 8.66667L15.25 8.95833C15.3333 8.98611 15.4167 9.02083 15.5 9.0625C15.5833 9.10417 15.6528 9.15278 15.7083 9.20833L15.9583 9.125C16.0556 9.09722 16.1493 9.09722 16.2396 9.125C16.3299 9.15278 16.4028 9.21528 16.4583 9.3125L16.5417 9.45833C16.5972 9.54167 16.6146 9.63194 16.5938 9.72917C16.5729 9.82639 16.5278 9.90972 16.4583 9.97917L16.25 10.1667V10.6667L16.4583 10.8542C16.5278 10.9236 16.5729 11.0069 16.5938 11.1042C16.6146 11.2014 16.5972 11.2917 16.5417 11.375L16.4583 11.5208C16.4028 11.6181 16.3299 11.6806 16.2396 11.7083C16.1493 11.7361 16.0556 11.7361 15.9583 11.7083L15.7083 11.625C15.6389 11.6944 15.566 11.7465 15.4896 11.7812C15.4132 11.816 15.3333 11.8472 15.25 11.875L15.1875 12.1667C15.1597 12.2639 15.1111 12.3438 15.0417 12.4062C14.9722 12.4688 14.8889 12.5 14.7917 12.5H14.625C14.5278 12.5 14.4444 12.4688 14.375 12.4062C14.3056 12.3438 14.2569 12.2639 14.2292 12.1667ZM14.7083 11.0417C14.875 11.0417 15.0208 10.9792 15.1458 10.8542C15.2708 10.7292 15.3333 10.5833 15.3333 10.4167C15.3333 10.25 15.2708 10.1042 15.1458 9.97917C15.0208 9.85417 14.875 9.79167 14.7083 9.79167C14.5417 9.79167 14.3958 9.85417 14.2708 9.97917C14.1458 10.1042 14.0833 10.25 14.0833 10.4167C14.0833 10.5833 14.1458 10.7292 14.2708 10.8542C14.3958 10.9792 14.5417 11.0417 14.7083 11.0417ZM16.125 7.875L16.0417 7.45833C15.9167 7.41667 15.8021 7.36458 15.6979 7.30208C15.5938 7.23958 15.5 7.16667 15.4167 7.08333L14.9792 7.22917C14.8542 7.27083 14.7292 7.26736 14.6042 7.21875C14.4792 7.17014 14.3819 7.09028 14.3125 6.97917L14.1875 6.77083C14.1181 6.65972 14.0938 6.53819 14.1146 6.40625C14.1354 6.27431 14.2014 6.15972 14.3125 6.0625L14.6667 5.75C14.6389 5.68056 14.625 5.625 14.625 5.58333V5.25C14.625 5.20833 14.6389 5.15278 14.6667 5.08333L14.3125 4.77083C14.2014 4.67361 14.1354 4.55903 14.1146 4.42708C14.0938 4.29514 14.1181 4.17361 14.1875 4.0625L14.3125 3.85417C14.3819 3.74306 14.4792 3.66319 14.6042 3.61458C14.7292 3.56597 14.8542 3.5625 14.9792 3.60417L15.4167 3.75C15.5 3.66667 15.5938 3.59375 15.6979 3.53125C15.8021 3.46875 15.9167 3.41667 16.0417 3.375L16.125 2.95833C16.1528 2.81944 16.2188 2.70833 16.3229 2.625C16.4271 2.54167 16.5486 2.5 16.6875 2.5H16.8958C17.0347 2.5 17.1563 2.54167 17.2604 2.625C17.3646 2.70833 17.4306 2.81944 17.4583 2.95833L17.5417 3.375C17.6667 3.41667 17.7813 3.46875 17.8854 3.53125C17.9896 3.59375 18.0833 3.66667 18.1667 3.75L18.6042 3.60417C18.7292 3.5625 18.8542 3.56597 18.9792 3.61458C19.1042 3.66319 19.2014 3.74306 19.2708 3.85417L19.3958 4.0625C19.4653 4.17361 19.4896 4.29514 19.4688 4.42708C19.4479 4.55903 19.3819 4.67361 19.2708 4.77083L18.9167 5.08333C18.9444 5.15278 18.9583 5.20833 18.9583 5.25V5.58333C18.9583 5.625 18.9444 5.68056 18.9167 5.75L19.2708 6.0625C19.3819 6.15972 19.4479 6.27431 19.4688 6.40625C19.4896 6.53819 19.4653 6.65972 19.3958 6.77083L19.2708 6.97917C19.2014 7.09028 19.1042 7.17014 18.9792 7.21875C18.8542 7.26736 18.7292 7.27083 18.6042 7.22917L18.1667 7.08333C18.0833 7.16667 17.9896 7.23958 17.8854 7.30208C17.7813 7.36458 17.6667 7.41667 17.5417 7.45833L17.4583 7.875C17.4306 8.01389 17.3646 8.125 17.2604 8.20833C17.1563 8.29167 17.0347 8.33333 16.8958 8.33333H16.6875C16.5486 8.33333 16.4271 8.29167 16.3229 8.20833C16.2188 8.125 16.1528 8.01389 16.125 7.875ZM16.7917 6.45833C17.0833 6.45833 17.3299 6.35764 17.5313 6.15625C17.7326 5.95486 17.8333 5.70833 17.8333 5.41667C17.8333 5.125 17.7326 4.87847 17.5313 4.67708C17.3299 4.47569 17.0833 4.375 16.7917 4.375C16.5 4.375 16.2535 4.47569 16.0521 4.67708C15.8507 4.87847 15.75 5.125 15.75 5.41667C15.75 5.70833 15.8507 5.95486 16.0521 6.15625C16.2535 6.35764 16.5 6.45833 16.7917 6.45833Z" fill="#10458B"/>
</g>
</svg>
