<svg width="14" height="19" viewBox="0 0 14 19" fill="none" xmlns="http://www.w3.org/2000/svg">
<path d="M2.00016 18.2734C1.54183 18.2734 1.14947 18.1102 0.823079 17.7839C0.496691 17.4575 0.333496 17.0651 0.333496 16.6068V8.27344C0.333496 7.8151 0.496691 7.42274 0.823079 7.09635C1.14947 6.76997 1.54183 6.60677 2.00016 6.60677H2.8335V4.9401C2.8335 3.78733 3.23975 2.80469 4.05225 1.99219C4.86475 1.17969 5.84739 0.773438 7.00016 0.773438C8.15294 0.773438 9.13558 1.17969 9.94808 1.99219C10.7606 2.80469 11.1668 3.78733 11.1668 4.9401V6.60677H12.0002C12.4585 6.60677 12.8509 6.76997 13.1772 7.09635C13.5036 7.42274 13.6668 7.8151 13.6668 8.27344V16.6068C13.6668 17.0651 13.5036 17.4575 13.1772 17.7839C12.8509 18.1102 12.4585 18.2734 12.0002 18.2734H2.00016ZM7.00016 14.1068C7.4585 14.1068 7.85086 13.9436 8.17725 13.6172C8.50364 13.2908 8.66683 12.8984 8.66683 12.4401C8.66683 11.9818 8.50364 11.5894 8.17725 11.263C7.85086 10.9366 7.4585 10.7734 7.00016 10.7734C6.54183 10.7734 6.14947 10.9366 5.82308 11.263C5.49669 11.5894 5.3335 11.9818 5.3335 12.4401C5.3335 12.8984 5.49669 13.2908 5.82308 13.6172C6.14947 13.9436 6.54183 14.1068 7.00016 14.1068ZM4.50016 6.60677H9.50016V4.9401C9.50016 4.24566 9.25711 3.65538 8.771 3.16927C8.28489 2.68316 7.69461 2.4401 7.00016 2.4401C6.30572 2.4401 5.71544 2.68316 5.22933 3.16927C4.74322 3.65538 4.50016 4.24566 4.50016 4.9401V6.60677Z" fill="#10458B"/>
</svg>
