<svg width="14" height="14" viewBox="0 0 14 14" fill="none" xmlns="http://www.w3.org/2000/svg">
<path d="M6.99992 6.94013C6.08325 6.94013 5.29853 6.61375 4.64575 5.96097C3.99297 5.30819 3.66659 4.52347 3.66659 3.6068C3.66659 2.69013 3.99297 1.90541 4.64575 1.25263C5.29853 0.599857 6.08325 0.273468 6.99992 0.273468C7.91658 0.273468 8.70131 0.599857 9.35408 1.25263C10.0069 1.90541 10.3333 2.69013 10.3333 3.6068C10.3333 4.52347 10.0069 5.30819 9.35408 5.96097C8.70131 6.61375 7.91658 6.94013 6.99992 6.94013ZM0.333252 13.6068V11.2735C0.333252 10.8012 0.45478 10.3672 0.697835 9.97138C0.940891 9.57555 1.26381 9.27347 1.66659 9.06514C2.5277 8.63458 3.4027 8.31166 4.29159 8.09638C5.18047 7.88111 6.08325 7.77347 6.99992 7.77347C7.91658 7.77347 8.81936 7.88111 9.70825 8.09638C10.5971 8.31166 11.4721 8.63458 12.3333 9.06514C12.736 9.27347 13.0589 9.57555 13.302 9.97138C13.5451 10.3672 13.6666 10.8012 13.6666 11.2735V13.6068H0.333252Z" fill="#10458B"/>
</svg>
